<svg width="15" height="15" viewBox="0 0 15 15" fill="none" xmlns="http://www.w3.org/2000/svg">
<path d="M11.8675 1.25745L13.7425 3.13245L12.3131 4.56245L10.4381 2.68745L11.8675 1.25745ZM5 9.99995H6.875L11.4294 5.44557L9.55437 3.57057L5 8.12495V9.99995Z" fill="#3A2E39"/>
<path d="M11.875 11.875H5.09875C5.0825 11.875 5.06563 11.8813 5.04938 11.8813C5.02875 11.8813 5.00813 11.8756 4.98688 11.875H3.125V3.125H7.40438L8.65438 1.875H3.125C2.43562 1.875 1.875 2.435 1.875 3.125V11.875C1.875 12.565 2.43562 13.125 3.125 13.125H11.875C12.2065 13.125 12.5245 12.9933 12.7589 12.7589C12.9933 12.5245 13.125 12.2065 13.125 11.875V6.4575L11.875 7.7075V11.875Z" fill="#3A2E39"/>
</svg>
